# xmcd
#
# Track frame offsets: 
#        150
#        12730
#        23972
#        34377
#        46539
#        58370
#        67648
#        80282
#        90619
#        101087
#        112654
#        123786
#        136293
#
# Disc length: 1966 seconds
#
# Revision: 0
# Processed by: cddbd v1.5.1PL0 Copyright (c) Steve Scherf et al.
# Submitted via: ExactAudioCopy v0.95a5
#
DISCID=9f07ac0d
DTITLE=Johnny Cash - Black Man Walking
DYEAR=2003
DGENRE=Country
TTITLE0=I Walk the Line
TTITLE1=Cry Cry Cry
TTITLE2=Ways of a Woman in Love
TTITLE3=You're the Nearest Thing to Heaven
TTITLE4=Mean Eyed Cat
TTITLE5=Blue Train
TTITLE6=So Doggone Lonesome
TTITLE7=Give My Love to Rose
TTITLE8=There You Go
TTITLE9=Katy Too
TTITLE10=Big River
TTITLE11=Train of Love
TTITLE12=Next in Line
EXTD=
EXTT0=
EXTT1=
EXTT2=
EXTT3=
EXTT4=
EXTT5=
EXTT6=
EXTT7=
EXTT8=
EXTT9=
EXTT10=
EXTT11=
EXTT12=
PLAYORDER=
